<svg width="512" height="512" viewBox="0 0 512 512" fill="none" xmlns="http://www.w3.org/2000/svg">
  <!-- Background Studio Gradient -->
  <rect width="512" height="512" rx="128" fill="url(#paint0_radial)"/>
  
  <!-- Polished Floor Reflection -->
  <path d="M0 384H512V512H0V384Z" fill="url(#paint1_linear)" opacity="0.3"/>
  
  <!-- The Bin -->
  <path d="M128 448L96 128H416L384 448H128Z" fill="#1A1A1A"/>
  <ellipse cx="256" cy="128" rx="160" ry="40" fill="#DAA520" stroke="#FFD700" stroke-width="8"/>
  <ellipse cx="256" cy="132" rx="140" ry="30" fill="#000000"/>
  
  <!-- The Golf Ball -->
  <circle cx="256" cy="300" r="80" fill="url(#paint2_radial)"/>
  <!-- Dimples -->
  <circle cx="226" cy="270" r="6" fill="black" fill-opacity="0.1"/>
  <circle cx="286" cy="270" r="6" fill="black" fill-opacity="0.1"/>
  <circle cx="256" cy="300" r="6" fill="black" fill-opacity="0.1"/>
  <circle cx="226" cy="330" r="6" fill="black" fill-opacity="0.1"/>
  <circle cx="286" cy="330" r="6" fill="black" fill-opacity="0.1"/>
  <circle cx="196" cy="300" r="6" fill="black" fill-opacity="0.1"/>
  <circle cx="316" cy="300" r="6" fill="black" fill-opacity="0.1"/>
  
  <defs>
    <radialGradient id="paint0_radial" cx="0" cy="0" r="1" gradientUnits="userSpaceOnUse" gradientTransform="translate(256 128) rotate(90) scale(384)">
      <stop offset="0" stop-color="#444444"/>
      <stop offset="1" stop-color="#111111"/>
    </radialGradient>
    <linearGradient id="paint1_linear" x1="256" y1="384" x2="256" y2="512" gradientUnits="userSpaceOnUse">
      <stop offset="0" stop-color="white" stop-opacity="0.2"/>
      <stop offset="1" stop-color="black" stop-opacity="0"/>
    </linearGradient>
    <radialGradient id="paint2_radial" cx="0" cy="0" r="1" gradientUnits="userSpaceOnUse" gradientTransform="translate(224 268) rotate(45) scale(120)">
      <stop offset="0" stop-color="white"/>
      <stop offset="0.7" stop-color="#E0E0E0"/>
      <stop offset="1" stop-color="#A0A0A0"/>
    </radialGradient>
  </defs>
</svg>
